<?xml version="1.0" encoding="utf-8"?>
<!-- Generator: Adobe Illustrator 16.0.0, SVG Export Plug-In . SVG Version: 6.00 Build 0)  -->
<!DOCTYPE svg PUBLIC "-//W3C//DTD SVG 1.1//EN" "http://www.w3.org/Graphics/SVG/1.1/DTD/svg11.dtd">
<svg version="1.1" id="Layer_1" xmlns="http://www.w3.org/2000/svg" xmlns:xlink="http://www.w3.org/1999/xlink" x="0px" y="0px"
	 width="192px" height="172.8px" viewBox="204 73.6 192 172.8" enable-background="new 204 73.6 192 172.8" xml:space="preserve">
<g>
	<g>
		<polygon fill="#FFFFFF" points="309.6,112 290.4,112 290.4,150.4 252,150.4 252,169.6 290.4,169.6 290.4,208 309.6,208 
			309.6,169.6 348,169.6 348,150.4 309.6,150.4 		"/>
		<path fill="#FFFFFF" d="M367.395,73.6h-134.79C216.838,73.6,204,86.438,204,102.205v115.594c0,15.763,12.838,28.602,28.605,28.602
			h134.788c15.77,0,28.607-12.839,28.607-28.602V102.205C396,86.438,383.162,73.6,367.395,73.6z M376.8,217.799
			c0,5.184-4.218,9.401-9.405,9.401h-134.79c-5.188,0-9.405-4.218-9.405-9.401V102.205c0-5.187,4.217-9.405,9.405-9.405h134.788
			c5.189,0,9.407,4.218,9.407,9.405V217.799z"/>
	</g>
</g>
</svg>
