<?xml version="1.0" encoding="utf-8"?>
<!-- Generator: Adobe Illustrator 16.0.0, SVG Export Plug-In . SVG Version: 6.00 Build 0)  -->
<!DOCTYPE svg PUBLIC "-//W3C//DTD SVG 1.1//EN" "http://www.w3.org/Graphics/SVG/1.1/DTD/svg11.dtd">
<svg version="1.1" id="Layer_1" xmlns="http://www.w3.org/2000/svg" xmlns:xlink="http://www.w3.org/1999/xlink" x="0px" y="0px"
	 width="287.482px" height="287.476px" viewBox="156.259 16.262 287.482 287.476"
	 enable-background="new 156.259 16.262 287.482 287.476" xml:space="preserve">
<g>
	<g>
		<path fill="#FFFFFF" d="M355.754,16.262c7.318,0,13.065,5.923,13.065,13.066c0,7.318-5.751,13.065-13.065,13.065h-111.68
			c-7.143,0-13.066-5.75-13.066-13.065c0-7.143,5.923-13.066,13.066-13.066H355.754z"/>
		<path fill="#FFFFFF" d="M400.877,68.531c0,7.318-5.924,13.065-13.066,13.065H212.189c-7.318,0-13.066-5.75-13.066-13.065
			c0-7.143,5.75-13.065,13.066-13.065h175.622C394.953,55.462,400.877,61.386,400.877,68.531z"/>
		<path fill="#FFFFFF" d="M156.262,142.576c0-26.308,21.431-47.914,47.914-47.914h191.651c26.483,0,47.914,21.603,47.914,47.914
			v113.248c0,26.482-21.431,47.914-47.914,47.914H204.173c-26.483,0-47.914-21.432-47.914-47.914V142.576H156.262z M395.827,120.8
			H204.173c-12.022,0.173-21.779,9.757-21.779,21.779v113.248c0,12.022,9.757,21.779,21.779,21.779h191.651
			c12.022,0,21.779-9.757,21.779-21.779V142.579C417.604,130.557,407.847,120.973,395.827,120.8z"/>
	</g>
</g>
</svg>
