<?xml version="1.0" encoding="utf-8"?>
<!-- Generator: Adobe Illustrator 16.0.0, SVG Export Plug-In . SVG Version: 6.00 Build 0)  -->
<!DOCTYPE svg PUBLIC "-//W3C//DTD SVG 1.1//EN" "http://www.w3.org/Graphics/SVG/1.1/DTD/svg11.dtd">
<svg version="1.1" xmlns="http://www.w3.org/2000/svg" xmlns:xlink="http://www.w3.org/1999/xlink" x="0px" y="0px" width="280px"
	 height="336px" viewBox="160 24 280 336" enable-background="new 160 24 280 336" xml:space="preserve">
<g id="Layer_2" display="none">
	<rect display="inline" fill="#212121" width="607.5" height="400"/>
</g>
<g id="Layer_1">
	<path fill="#444444" d="M169.333,117.333h9.334v233.333c0,5.156,4.177,9.334,9.333,9.334h224c5.155,0,9.334-4.178,9.334-9.334
		V117.333h9.332c5.156,0,9.334-4.178,9.334-9.333V70.667c0-5.156-4.178-9.334-9.334-9.334h-84v-28c0-5.155-4.176-9.333-9.332-9.333
		h-74.667c-5.156,0-9.334,4.178-9.334,9.333v28h-84c-5.156,0-9.333,4.178-9.333,9.334V108
		C160,113.155,164.177,117.333,169.333,117.333z M402.666,341.334H197.333V117.333h205.333V341.334z M272,42.667h56v18.666h-56
		V42.667z M178.667,80h84h74.667h84v18.667H412H188h-9.333V80L178.667,80z"/>
	<path fill="#444444" d="M300,322.666c5.156,0,9.334-4.178,9.334-9.332V145.333c0-5.155-4.178-9.333-9.334-9.333
		s-9.333,4.178-9.333,9.333v168.001C290.667,318.488,294.844,322.666,300,322.666z"/>
	<path fill="#444444" d="M244,322.666c5.156,0,9.333-4.178,9.333-9.332V145.333c0-5.155-4.177-9.333-9.333-9.333
		c-5.155,0-9.333,4.178-9.333,9.333v168.001C234.667,318.488,238.845,322.666,244,322.666z"/>
	<path fill="#444444" d="M356,322.666c5.154,0,9.334-4.178,9.334-9.332V145.333c0-5.155-4.18-9.333-9.334-9.333
		s-9.334,4.178-9.334,9.333v168.001C346.666,318.488,350.844,322.666,356,322.666z"/>
</g>
</svg>
