<?xml version="1.0" encoding="utf-8"?>
<!-- Generator: Adobe Illustrator 16.0.0, SVG Export Plug-In . SVG Version: 6.00 Build 0)  -->
<!DOCTYPE svg PUBLIC "-//W3C//DTD SVG 1.1//EN" "http://www.w3.org/Graphics/SVG/1.1/DTD/svg11.dtd">
<svg version="1.1" id="Layer_1" xmlns="http://www.w3.org/2000/svg" xmlns:xlink="http://www.w3.org/1999/xlink" x="0px" y="0px"
	 width="340.548px" height="271.332px" viewBox="125.452 46.668 340.548 271.332"
	 enable-background="new 125.452 46.668 340.548 271.332" xml:space="preserve">
<path fill="#FFFFFF" d="M125.452,291c0-14.912,12.088-27,27-27h172c14.912,0,27,12.088,27,27l0,0c0,14.912-12.088,27-27,27h-172
	C137.54,318,125.452,305.912,125.452,291L125.452,291z"/>
<path fill="#FFFFFF" d="M125.452,73.668c0-14.916,12.088-27,27-27h172c14.912,0,27,12.084,27,27l0,0c0,14.916-12.088,27-27,27h-172
	C137.54,100.668,125.452,88.584,125.452,73.668L125.452,73.668z"/>
<path fill="#FFFFFF" d="M152.452,47.336c14.916,0,27,12.088,27,27v212c0,14.912-12.084,27-27,27l0,0c-14.916,0-27-12.088-27-27v-212
	C125.452,59.424,137.536,47.336,152.452,47.336L152.452,47.336z"/>
<path fill="#FFFFFF" d="M459.708,168.228l-60.216-60.216c-8.389-8.388-21.988-8.388-30.376,0c-8.388,8.389-8.388,21.988,0,30.377
	l23.508,23.508H288.308c-11.867,0-21.483,9.615-21.483,21.476c0,11.864,9.616,21.476,21.483,21.476H392.66l-23.527,23.5
	c-8.396,8.385-8.404,21.98-0.021,30.377c4.196,4.199,9.696,6.299,15.196,6.299c5.496,0,10.988-2.092,15.18-6.279l60.212-60.136
	c4.032-4.028,6.296-9.492,6.3-15.188C466.004,177.72,463.736,172.252,459.708,168.228z"/>
</svg>
