<?xml version="1.0" encoding="utf-8"?>
<!-- Generator: Adobe Illustrator 16.0.0, SVG Export Plug-In . SVG Version: 6.00 Build 0)  -->
<!DOCTYPE svg PUBLIC "-//W3C//DTD SVG 1.1//EN" "http://www.w3.org/Graphics/SVG/1.1/DTD/svg11.dtd">
<svg version="1.1" id="Layer_1" xmlns="http://www.w3.org/2000/svg" xmlns:xlink="http://www.w3.org/1999/xlink" x="0px" y="0px"
	 width="600px" height="400px" viewBox="0 0 600 400" enable-background="new 0 0 600 400" xml:space="preserve">
<g id="Layer_2">
	<rect fill="#2B2B2B" width="600" height="400"/>
</g>
<g id="Layer_1_1_">
	<rect x="316.557" y="178.042" width="6.219" height="7.175"/>
	<rect x="322.537" y="185.217" width="6.219" height="7.175"/>
	<rect x="328.758" y="192.39" width="26.305" height="7.175"/>
	<rect x="355.062" y="149.583" width="6.219" height="42.808"/>
	<rect x="361.283" y="178.042" width="7.172" height="7.175"/>
	<rect x="368.455" y="170.988" width="12.438" height="7.175"/>
	<rect x="380.893" y="178.042" width="6.455" height="28.626"/>
	<rect x="387.348" y="206.67" width="6.461" height="35.229"/>
	<rect x="380.967" y="242.255" width="6.381" height="7.175"/>
	<rect x="374.58" y="249.43" width="6.387" height="7.176"/>
	<rect x="239.54" y="256.604" width="134.849" height="7.172"/>
	<rect x="341.91" y="263.775" width="6.385" height="7.177"/>
	<rect x="361.676" y="263.775" width="6.383" height="7.177"/>
	<rect x="348.295" y="270.952" width="13.383" height="7.173"/>
	<rect x="316.088" y="270.952" width="19.664" height="7.173"/>
	<rect x="329.365" y="263.775" width="6.387" height="7.177"/>
	<rect x="310.299" y="263.775" width="6.383" height="7.177"/>
	<rect x="239.54" y="135.143" width="109.173" height="7.175"/>
	<rect x="348.713" y="142.316" width="6.35" height="7.266"/>
	<rect x="303.779" y="170.988" width="12.777" height="7.054"/>
	<rect x="297.316" y="178.042" width="6.463" height="28.628"/>
	<rect x="290.772" y="206.67" width="6.544" height="35.479"/>
	<rect x="297.316" y="242.146" width="6.463" height="7.199"/>
	<rect x="303.779" y="249.348" width="6.52" height="7.258"/>
	<rect x="323.004" y="235.271" width="6.361" height="14.074"/>
	<rect x="329.365" y="242.311" width="38.693" height="7.119"/>
	<rect x="361.676" y="235.271" width="6.383" height="7.041"/>
	<rect x="342.307" y="235.271" width="6.406" height="7.041"/>
	<rect x="348.713" y="221.039" width="6.35" height="6.951"/>
	<rect x="361.676" y="221.039" width="6.383" height="6.951"/>
	<rect x="368.059" y="213.678" width="6.332" height="7.361"/>
	<rect x="368.059" y="221.039" width="6.332" height="6.951"/>
	<rect x="323.004" y="213.678" width="6.361" height="7.361"/>
	<rect x="323.004" y="221.039" width="6.361" height="6.951"/>
	<rect x="316.682" y="221.039" width="6.322" height="6.951"/>
	<rect x="226.713" y="149.313" width="6.218" height="99.847"/>
	<rect x="232.933" y="142.316" width="6.609" height="6.997"/>
	<rect x="220.198" y="249.16" width="19.342" height="7.443"/>
	<rect x="213.774" y="256.604" width="6.423" height="21.201"/>
	<rect x="220.198" y="270.835" width="19.342" height="6.972"/>
	<rect x="232.933" y="263.775" width="12.695" height="7.058"/>
	<rect x="252.415" y="263.775" width="6.243" height="14.029"/>
	<rect x="258.657" y="270.791" width="12.851" height="7.016"/>
	<rect x="271.509" y="263.775" width="6.332" height="7.015"/>
	<rect x="187.894" y="185.217" width="25.881" height="7.138"/>
	<rect x="187.894" y="192.39" width="6.457" height="14.278"/>
	<rect x="194.35" y="199.565" width="6.486" height="14.112"/>
	<rect x="200.836" y="206.67" width="6.431" height="14.369"/>
	<rect x="207.264" y="213.678" width="6.51" height="14.314"/>
	<rect x="213.774" y="221.039" width="12.938" height="6.951"/>
	<rect x="220.245" y="227.992" width="6.468" height="7.279"/>
	<rect x="220.245" y="199.529" width="6.468" height="14.148"/>
	<rect x="207.264" y="192.39" width="12.98" height="7.137"/>
	<rect x="213.754" y="199.529" width="6.491" height="7.075"/>
	<rect x="284.032" y="206.67" width="6.74" height="7.008"/>
	<path d="M342.307,163.932v-6.938h-6.553v-7.414l-83.339-0.27v6.965h-6.786v7.653l-6.086-0.239l-0.261,71.581h6.347v7.039h6.787
		v-7.039h6.243v7.039h-6.243v6.851l44.9,0.187v-7.199h-6.543V206.67h6.543v-28.628h6.465v-7.054h12.777v7.054h6.219l-0.24,7.175
		h6.219v7.175h19.955v-28.46H342.307z M252.415,220.834h-6.787v-6.979h6.787V220.834z M258.657,170.988h-6.242v-6.817h6.242V170.988
		z M265.083,199.565h6.426v7.039h-6.426V199.565z M277.841,235.271h-6.332v-7.279h6.332V235.271z M284.032,192.39h-6.192v-7.176
		h6.192V192.39z M297.316,164.169h-6.544v-7.414h6.544V164.169z M316.557,164.169h-6.258v-7.414h6.258V164.169z M335.752,178.042
		h-6.387v-7.054h6.387V178.042z"/>
</g>
<g id="Layer_3">
</g>
</svg>
