<?xml version="1.0" encoding="utf-8"?>
<!-- Generator: Adobe Illustrator 16.0.0, SVG Export Plug-In . SVG Version: 6.00 Build 0)  -->
<!DOCTYPE svg PUBLIC "-//W3C//DTD SVG 1.1//EN" "http://www.w3.org/Graphics/SVG/1.1/DTD/svg11.dtd">
<svg version="1.1" id="Layer_1" xmlns="http://www.w3.org/2000/svg" xmlns:xlink="http://www.w3.org/1999/xlink" x="0px" y="0px"
	 width="288.003px" height="282.683px" viewBox="156 18.658 288.003 282.683" enable-background="new 156 18.658 288.003 282.683"
	 xml:space="preserve">
<g>
	<g>
		<path fill="#FFFFFF" d="M299.667,194.167c-1.638,0-3.273-0.416-4.746-1.254l-134.051-76.157c-2.986-1.693-4.832-4.842-4.867-8.266
			c-0.032-3.421,1.756-6.608,4.704-8.358l134.72-80.122c3.011-1.798,6.768-1.798,9.798-0.022L439.271,98.95
			c2.944,1.738,4.752,4.918,4.732,8.343c-0.022,3.42-1.855,6.576-4.832,8.281l-134.714,77.312
			C302.977,193.741,301.322,194.167,299.667,194.167z M184.752,108.202l114.896,65.273l115.606-66.346L300.362,39.45
			L184.752,108.202z"/>
	</g>
	<g>
		<path fill="#FFFFFF" d="M299.667,247.779c-1.638,0-3.273-0.416-4.746-1.254l-134.051-76.154
			c-4.621-2.621-6.237-8.493-3.616-13.113c2.621-4.621,8.512-6.243,13.11-3.61l129.28,73.44l129.949-74.576
			c4.602-2.644,10.486-1.056,13.126,3.552c2.644,4.605,1.05,10.483-3.555,13.126l-134.71,77.312
			C302.977,247.357,301.322,247.779,299.667,247.779z"/>
	</g>
	<g>
		<path fill="#FFFFFF" d="M299.667,301.341c-1.638,0-3.273-0.416-4.746-1.255l-134.051-76.153c-4.621-2.62-6.237-8.493-3.616-13.113
			c2.621-4.614,8.512-6.233,13.11-3.61l129.28,73.44l129.949-74.575c4.602-2.653,10.486-1.053,13.126,3.551
			c2.644,4.605,1.05,10.484-3.555,13.127l-134.71,77.312C302.977,300.918,301.322,301.341,299.667,301.341z"/>
	</g>
</g>
</svg>
