<?xml version="1.0" encoding="utf-8"?>
<!-- Generator: Adobe Illustrator 16.0.0, SVG Export Plug-In . SVG Version: 6.00 Build 0)  -->
<!DOCTYPE svg PUBLIC "-//W3C//DTD SVG 1.1//EN" "http://www.w3.org/Graphics/SVG/1.1/DTD/svg11.dtd">
<svg version="1.1" id="Layer_1" xmlns="http://www.w3.org/2000/svg" xmlns:xlink="http://www.w3.org/1999/xlink" x="0px" y="0px"
	 width="340.547px" height="271.332px" viewBox="0 0 340.547 271.332" enable-background="new 0 0 340.547 271.332"
	 xml:space="preserve">
<g id="Layer_2" display="none">
	<rect x="-0.001" display="inline" fill="#303030" width="340.548" height="271.332"/>
</g>
<g id="Layer_1_1_">
	<path fill="#FFFFFF" d="M-0.001,246.332c0-12.428,12.088-22.5,27-22.5h172c14.912,0,27,10.072,27,22.5l0,0
		c0,12.427-12.088,22.5-27,22.5h-172C12.087,268.832-0.001,258.759-0.001,246.332L-0.001,246.332z"/>
	<path fill="#FFFFFF" d="M-0.001,23.583c0-12.43,12.088-22.5,27-22.5h172c14.912,0,27,10.07,27,22.5l0,0
		c0,12.43-12.088,22.5-27,22.5h-172C12.087,46.083-0.001,36.013-0.001,23.583L-0.001,23.583z"/>
	<path fill="#FFFFFF" d="M21.114,0.668c12.43,0,22.5,12.088,22.5,27v212c0,14.912-10.069,27-22.5,27l0,0
		c-12.43,0-22.5-12.088-22.5-27v-212C-1.386,12.756,8.684,0.668,21.114,0.668L21.114,0.668z"/>
	<path fill="#FFFFFF" d="M334.254,121.561L274.04,61.344c-8.39-8.388-21.988-8.388-30.377,0c-8.388,8.389-8.388,21.988,0,30.376
		l23.508,23.508H162.855c-11.867,0-21.483,9.615-21.483,21.477c0,11.863,9.616,21.477,21.483,21.477h104.353l-23.526,23.5
		c-8.396,8.385-8.404,21.979-0.021,30.377c4.195,4.198,9.695,6.299,15.195,6.299c5.496,0,10.987-2.092,15.182-6.278l60.211-60.138
		c4.033-4.026,6.297-9.49,6.301-15.188C340.551,131.053,338.284,125.584,334.254,121.561z"/>
</g>
</svg>
